HIERARCHY
ROOT Hips
{
	OFFSET -0.001795 -0.223333 0.028219
	CHANNELS 6 Xposition Yposition Zposition Zrotation Yrotation Xrotation 
	JOINT LeftUpLeg
	{
		OFFSET 0.069520 -0.091406 -0.006815
		CHANNELS 3 Zrotation Yrotation Xrotation
		JOINT LeftLeg
		{
			OFFSET 0.034277 -0.375199 -0.004496
			CHANNELS 3 Zrotation Yrotation Xrotation
			JOINT LeftFoot
			{
				OFFSET -0.013596 -0.397961 -0.043693
				CHANNELS 3 Zrotation Yrotation Xrotation
				JOINT LeftToe
				{
					OFFSET 0.026358 -0.055791 0.119288
					CHANNELS 3 Zrotation Yrotation Xrotation
					End Site
					{
						OFFSET 0.000000 0.000000 0.000000
					}
				}
			}
		}
	}
	JOINT RightUpLeg
	{
		OFFSET -0.067670 -0.090522 -0.004320
		CHANNELS 3 Zrotation Yrotation Xrotation
		JOINT RightLeg
		{
			OFFSET -0.038290 -0.382569 -0.008850
			CHANNELS 3 Zrotation Yrotation Xrotation
			JOINT RightFoot
			{
				OFFSET 0.015774 -0.398415 -0.042312
				CHANNELS 3 Zrotation Yrotation Xrotation
				JOINT RightToe
				{
					OFFSET -0.025372 -0.048144 0.123348
					CHANNELS 3 Zrotation Yrotation Xrotation
					End Site
					{
						OFFSET 0.000000 0.000000 0.000000
					}
				}
			}
		}
	}
	JOINT Spine
	{
		OFFSET -0.002533 0.108963 -0.026696
		CHANNELS 3 Zrotation Yrotation Xrotation
		JOINT Spine1
		{
			OFFSET 0.005487 0.135180 0.001092
			CHANNELS 3 Zrotation Yrotation Xrotation
			JOINT Spine2
			{
				OFFSET 0.001457 0.052922 0.025425
				CHANNELS 3 Zrotation Yrotation Xrotation
				JOINT Neck
				{
					OFFSET -0.002778 0.213870 -0.042857
					CHANNELS 3 Zrotation Yrotation Xrotation
					JOINT Head
					{
						OFFSET 0.005152 0.064970 0.051349
						CHANNELS 3 Zrotation Yrotation Xrotation
						End Site
						{
							OFFSET 0.000000 0.000000 0.000000
						}
					}
				}
				JOINT LeftShoulder
				{
					OFFSET 0.078845 0.121749 -0.034090
					CHANNELS 3 Zrotation Yrotation Xrotation
					JOINT LeftArm
					{
						OFFSET 0.090977 0.030469 -0.008868
						CHANNELS 3 Zrotation Yrotation Xrotation
						JOINT LeftForeArm
						{
							OFFSET 0.259612 -0.012772 -0.027456
							CHANNELS 3 Zrotation Yrotation Xrotation
							JOINT LeftHand
							{
								OFFSET 0.249234 0.008986 -0.001171
								CHANNELS 3 Zrotation Yrotation Xrotation
								End Site
								{
									OFFSET 0.000000 0.000000 0.000000
								}
							}
						}
					}
				}
				JOINT RightShoulder
				{
					OFFSET -0.081759 0.118833 -0.038615
					CHANNELS 3 Zrotation Yrotation Xrotation
					JOINT RightArm
					{
						OFFSET -0.096012 0.032551 -0.009143
						CHANNELS 3 Zrotation Yrotation Xrotation
						JOINT RightForeArm
						{
							OFFSET -0.253742 -0.013329 -0.021401
							CHANNELS 3 Zrotation Yrotation Xrotation
							JOINT RightHand
							{
								OFFSET -0.255298 0.007772 -0.005559
								CHANNELS 3 Zrotation Yrotation Xrotation
								End Site
								{
									OFFSET 0.000000 0.000000 0.000000
								}
							}
						}
					}
				}
			}
		}
	}
}
MOTION
Frames: 9
Frame Time: 0.050000
0.000000 0.957314 0.000000 -0.087301 -5.265123 -2.652119 3.008602 0.337486 4.517827 3.675604 -0.161289 -4.139526 7.422198 16.479949 21.146088 0.000000 0.000000 0.000000 -3.078725 -0.102522 2.856725 1.626457 -0.243754 -3.599244 -3.822839 -13.619652 16.534370 0.000000 0.000000 0.000000 5.776057 -0.482209 5.506439 -6.893003 2.275517 -22.416310 -1.486177 6.842274 27.441686 9.481011 -4.446834 -20.061646 0.000000 0.000000 0.000000 -12.690373 -6.974600 2.130828 -51.421282 -0.611095 -8.201291 -9.941030 -27.111983 3.551706 0.000000 0.000000 0.000000 21.111429 -4.758195 -2.957735 54.682182 0.364564 -7.813004 11.673446 23.409362 3.487503 0.000000 0.000000 0.000000 
0.000110 0.955948 -0.000122 0.016307 -5.807476 -2.337347 2.842862 0.372954 4.858966 3.708846 -0.092622 -5.195617 7.726506 16.822381 21.218803 0.000000 0.000000 0.000000 -3.263722 -0.047800 2.289993 1.718470 -0.241653 -3.368860 -3.667279 -13.333879 15.987707 0.000000 0.000000 0.000000 6.089162 -0.518754 5.719995 -7.404729 2.389593 -22.658624 -1.655370 7.215413 27.140161 10.172527 -4.780636 -20.681867 0.000000 0.000000 0.000000 -12.463660 -7.368958 2.320438 -51.568170 -0.439606 -8.288900 -9.430013 -27.355301 3.463076 0.000000 0.000000 0.000000 21.153031 -4.716168 -2.948223 55.566703 -0.382961 -8.210090 11.254169 24.144304 3.535868 0.000000 0.000000 0.000000 
0.000278 0.955244 -0.000624 0.188002 -5.534382 -2.089924 2.958359 0.290377 3.871024 3.173757 -0.123853 -4.105045 7.698527 16.793237 20.743044 0.000000 0.000000 0.000000 -3.287668 -0.044524 2.247075 1.434666 -0.234667 -3.800549 -3.835589 -13.565237 15.928031 0.000000 0.000000 0.000000 6.611741 -0.529798 5.522852 -7.618147 2.447510 -22.717862 -1.942723 7.110000 27.772911 10.195012 -4.683659 -21.372068 0.000000 0.000000 0.000000 -12.629408 -8.390143 2.801795 -51.073820 -0.465769 -8.255145 -9.352001 -25.633453 3.196130 0.000000 0.000000 0.000000 20.914918 -4.104093 -2.541606 55.478297 -0.048222 -8.114197 11.131735 24.182332 3.513692 0.000000 0.000000 0.000000 
0.000285 0.955358 -0.000997 0.291057 -5.584520 -2.425809 2.850930 0.341535 4.470438 3.174783 -0.095100 -4.559805 7.659048 16.745799 20.872470 0.000000 0.000000 0.000000 -3.495423 -0.037312 2.277568 1.598549 -0.232654 -3.270573 -3.827672 -13.533609 15.782983 0.000000 0.000000 0.000000 6.595135 -0.576178 6.103934 -7.633832 2.448862 -22.818664 -2.310147 7.287778 28.094651 10.704550 -5.052571 -21.220615 0.000000 0.000000 0.000000 -11.887482 -9.282587 3.204470 -51.096047 0.074273 -8.523036 -8.795712 -25.307370 3.014585 0.000000 0.000000 0.000000 21.136864 -3.721353 -2.271591 54.101426 0.249701 -7.895982 12.165900 23.639819 3.620193 0.000000 0.000000 0.000000 
0.000251 0.955265 -0.001164 0.482076 -5.895817 -2.550446 2.528220 0.338579 4.242859 3.341731 -0.155068 -3.876877 7.870874 16.990021 20.904358 0.000000 0.000000 0.000000 -3.570882 -0.022121 2.141079 1.346872 -0.206305 -2.919118 -3.718222 -13.351392 15.553553 0.000000 0.000000 0.000000 6.455690 -0.619104 6.696342 -7.102802 2.323546 -22.222165 -2.815547 7.335100 27.362790 10.580389 -5.115915 -20.392565 0.000000 0.000000 0.000000 -11.498633 -9.627656 3.363144 -51.173394 0.161611 -8.499958 -9.306978 -24.485132 3.009373 0.000000 0.000000 0.000000 20.607159 -3.212480 -2.013216 53.351308 0.470567 -7.614142 12.936854 23.473588 3.706374 0.000000 0.000000 0.000000 
0.000182 0.955393 -0.001016 0.613156 -6.299910 -2.602940 2.231325 0.363334 4.382768 3.573325 -0.174453 -3.910169 8.076164 17.222896 21.147683 0.000000 0.000000 0.000000 -3.802770 -0.007624 2.172192 1.485992 -0.215975 -2.990671 -3.510993 -13.046379 15.493315 0.000000 0.000000 0.000000 6.608402 -0.651330 7.002350 -7.294696 2.361430 -22.426999 -2.832945 7.477657 27.896412 10.437379 -4.991476 -20.726452 0.000000 0.000000 0.000000 -10.947166 -9.876336 3.511624 -50.471556 0.191081 -8.454140 -9.857644 -23.527757 2.992850 0.000000 0.000000 0.000000 20.271333 -2.996172 -1.886168 52.581259 0.949024 -7.372706 13.133032 22.729428 3.589414 0.000000 0.000000 0.000000 
0.000099 0.955324 -0.000763 0.734971 -6.352271 -2.528404 2.174262 0.386020 4.631516 3.442851 -0.125915 -4.472187 8.062541 17.202259 21.259722 0.000000 0.000000 0.000000 -3.796467 0.005043 1.976599 1.242512 -0.194524 -2.796941 -3.522208 -13.050577 15.377299 0.000000 0.000000 0.000000 6.583797 -0.668648 7.199947 -7.075569 2.317159 -21.999243 -3.235238 7.413648 27.579553 10.669661 -5.221073 -20.376086 0.000000 0.000000 0.000000 -10.694893 -10.088517 3.610081 -49.525127 0.752015 -8.476042 -9.978598 -23.412736 2.986635 0.000000 0.000000 0.000000 20.080025 -2.684499 -1.729321 51.553884 1.043163 -7.183512 13.676939 22.638992 3.653977 0.000000 0.000000 0.000000 
-0.000018 0.955147 -0.000451 0.821298 -6.319759 -2.196014 2.186477 0.372361 4.497852 3.260979 -0.084645 -4.868569 8.036471 17.168655 21.296982 0.000000 0.000000 0.000000 -3.890978 0.029444 1.684392 1.259611 -0.198195 -2.899390 -3.564584 -13.110466 15.345811 0.000000 0.000000 0.000000 6.548773 -0.676458 7.230698 -7.029685 2.309394 -21.784673 -3.508539 7.305614 27.362968 10.917212 -5.462570 -20.004943 0.000000 0.000000 0.000000 -10.008080 -10.377544 3.737317 -48.531162 1.728105 -8.645376 -10.825472 -23.856906 3.208114 0.000000 0.000000 0.000000 19.398301 -2.579914 -1.659771 50.505071 1.026030 -7.027117 14.674966 22.236425 3.745015 0.000000 0.000000 0.000000 
-0.000180 0.955147 -0.000165 0.872290 -6.463112 -2.118755 2.196505 0.394766 4.758610 3.147025 -0.040805 -5.411007 8.068501 17.200019 21.452436 0.000000 0.000000 0.000000 -4.010223 0.041480 1.620856 1.380764 -0.207034 -2.953426 -3.497543 -13.009319 15.312822 0.000000 0.000000 0.000000 6.541023 -0.694103 7.423954 -7.073764 2.326832 -21.515966 -3.587673 7.313550 27.111563 11.101751 -5.602691 -19.946928 0.000000 0.000000 0.000000 -9.442729 -10.248001 3.678196 -47.847245 2.787741 -8.890768 -11.460643 -24.064425 3.361745 0.000000 0.000000 0.000000 19.227777 -2.451208 -1.601285 49.101580 1.186975 -6.778895 15.509030 21.697890 3.770599 0.000000 0.000000 0.000000 
